<?xml version="1.0" encoding="utf-8"?>
<svg width="800px" height="800px" viewBox="0 0 48 48" xmlns="http://www.w3.org/2000/svg">
  <defs>
    <style>
      .stroke-element {fill:none; stroke:#000000; stroke-width:1.2; stroke-linecap:round; stroke-linejoin:round;}
      .fill-element {fill:#000000;}
    </style>
  </defs>
  
  <!-- Brain symbolizing AI -->
  <path class="stroke-element" d="M24,8 C28,8 31,11 31,15 C31,17 30,19 28,20 C30,21 31,23 31,26 C31,30 28,33 24,33 C20,33 17,30 17,26 C17,23 18,21 20,20 C18,19 17,17 17,15 C17,11 20,8 24,8 Z"/>
  
  <!-- Circuit connections for AI processing -->
  <line class="stroke-element" x1="21" y1="14" x2="27" y2="14"/>
  <line class="stroke-element" x1="21" y1="18" x2="27" y2="18"/>
  <line class="stroke-element" x1="21" y1="22" x2="27" y2="22"/>
  <line class="stroke-element" x1="21" y1="26" x2="27" y2="26"/>
  
  <!-- NLP speech bubbles -->
  <path class="stroke-element" d="M10,18 C8,18 6,19 6,21 C6,23 8,24 10,24 L10,27 L13,24 L14,24 C16,24 18,23 18,21 C18,19 16,18 14,18 Z" fill="#EFEFEF"/>
  
  <!-- Algorithm flowchart elements -->
  <rect x="34" y="12" width="8" height="6" class="stroke-element" fill="#EFEFEF"/>
  <rect x="34" y="22" width="8" height="6" class="stroke-element" fill="#EFEFEF"/>
  <rect x="34" y="32" width="8" height="6" class="stroke-element" fill="#EFEFEF"/>
  
  <!-- Connecting arrows -->
  <line class="stroke-element" x1="38" y1="18" x2="38" y2="22"/>
  <line class="stroke-element" x1="38" y1="28" x2="38" y2="32"/>
  
  <!-- Binary data at bottom -->
  <text x="12" y="42" font-family="monospace" font-size="4" class="fill-element">10101</text>
  <text x="28" y="42" font-family="monospace" font-size="4" class="fill-element">01010</text>
</svg> 